Coordinates
version=1
nRows=31
nColumns=38
inDegrees=no

Units are S.I. units (second, meters, Newtons, ...)
If the header above contains a line with 'inDegrees', this indicates whether rotational values are in degrees (yes) or radians (no).

endheader
time	pelvis_tilt	pelvis_list	pelvis_rotation	pelvis_tx	pelvis_ty	pelvis_tz	hip_flexion_r	hip_adduction_r	hip_rotation_r	knee_angle_r	ankle_angle_r	subtalar_angle_r	mtp_angle_r	hip_flexion_l	hip_adduction_l	hip_rotation_l	knee_angle_l	ankle_angle_l	subtalar_angle_l	mtp_angle_l	lumbar_extension	lumbar_bending	lumbar_rotation	arm_flex_r	arm_add_r	arm_rot_r	elbow_flex_r	pro_sup_r	wrist_flex_r	wrist_dev_r	arm_flex_l	arm_add_l	arm_rot_l	elbow_flex_l	pro_sup_l	wrist_flex_l	wrist_dev_l
135	-3.08753	1.37997	-1.46901	0.830363	-0.571741	1.08632	-0.0209772	-0.094696	-0.0111832	0.384322	-0.346625	0	0	-0.187428	0.023295	-0.115687	0.159179	-0.307136	0	0	-0.352051	0.142876	0.303771	0.133771	-0.433209	-0.292165	1.62766	1.5708	0	0	0.634921	0.269813	0.454072	0.798549	1.5708	0	0
135.01	-3.06974	1.37632	-1.48327	0.83085	-0.570975	1.08668	-0.0327827	-0.0973871	-0.0174758	0.371026	-0.353182	0	0	-0.192018	0.0250827	-0.112426	0.159341	-0.309911	0	0	-0.354132	0.140798	0.302351	0.134277	-0.431606	-0.293125	1.62597	1.5708	0	0	0.639543	0.270228	0.457551	0.790827	1.5708	0	0
135.02	-3.0539	1.37488	-1.49611	0.831404	-0.570175	1.08686	-0.0410375	-0.0999902	-0.0245456	0.360222	-0.355347	0	0	-0.194016	0.026855	-0.109631	0.160026	-0.310227	0	0	-0.353658	0.139044	0.298988	0.136907	-0.429539	-0.290285	1.62251	1.5708	0	0	0.641184	0.269752	0.455669	0.786052	1.5708	0	0
135.03	-3.04047	1.37558	-1.50763	0.832135	-0.569304	1.08682	-0.045159	-0.102424	-0.0323547	0.35298	-0.352208	0	0	-0.193398	0.0283411	-0.108472	0.161504	-0.309588	0	0	-0.351157	0.137576	0.296886	0.138775	-0.427218	-0.287843	1.61973	1.5708	0	0	0.641913	0.269337	0.453192	0.781827	1.5708	0	0
135.04	-3.02955	1.37442	-1.51676	0.832938	-0.568543	1.08703	-0.0519353	-0.104056	-0.0416002	0.343084	-0.355136	0	0	-0.194991	0.0292643	-0.107214	0.162148	-0.310069	0	0	-0.350913	0.136753	0.294854	0.141727	-0.425326	-0.284718	1.61665	1.5708	0	0	0.643375	0.268718	0.45085	0.77746	1.5708	0	0
135.05	-3.0205	1.37331	-1.52456	0.833856	-0.567793	1.08724	-0.0576976	-0.105034	-0.0486692	0.335081	-0.35764	0	0	-0.196501	0.0298535	-0.106455	0.16272	-0.310515	0	0	-0.350586	0.135992	0.293532	0.144578	-0.423343	-0.28181	1.61343	1.5708	0	0	0.644875	0.268269	0.448522	0.772765	1.5708	0	0
135.06	-3.01407	1.37206	-1.52992	0.834871	-0.567034	1.0875	-0.0636388	-0.105226	-0.0552886	0.327116	-0.360011	0	0	-0.198131	0.0297866	-0.10602	0.163279	-0.310887	0	0	-0.350282	0.13588	0.292425	0.147556	-0.421333	-0.278537	1.61003	1.5708	0	0	0.646353	0.267722	0.446099	0.767795	1.5708	0	0
135.07	-3.01039	1.37041	-1.53263	0.835967	-0.566329	1.08781	-0.0702024	-0.104663	-0.0607521	0.318998	-0.36205	0	0	-0.20001	0.0290202	-0.105781	0.164104	-0.311123	0	0	-0.350582	0.136258	0.291617	0.150699	-0.419362	-0.275178	1.60673	1.5708	0	0	0.648097	0.26714	0.443795	0.762809	1.5708	0	0
135.08	-3.01045	1.36506	-1.5315	0.837135	-0.565817	1.08849	-0.0826722	-0.102576	-0.0652592	0.305554	-0.370613	0	0	-0.206069	0.0271613	-0.105629	0.164288	-0.31148	0	0	-0.355135	0.13739	0.291079	0.155203	-0.41803	-0.271607	1.60319	1.5708	0	0	0.651638	0.266633	0.442492	0.757136	1.5708	0	0
135.09	-3.00889	1.3647	-1.53285	0.838418	-0.565123	1.08865	-0.086665	-0.101251	-0.068322	0.30056	-0.366453	0	0	-0.206266	0.0259984	-0.105383	0.16583	-0.310773	0	0	-0.354455	0.137879	0.291415	0.157818	-0.415965	-0.269241	1.60041	1.5708	0	0	0.653189	0.266258	0.440301	0.75251	1.5708	0	0
135.1	-3.00932	1.35949	-1.53222	0.83976	-0.56469	1.08927	-0.0986233	-0.098691	-0.0698367	0.287281	-0.374519	0	0	-0.212186	0.0241993	-0.105355	0.165995	-0.310544	0	0	-0.359955	0.139219	0.290769	0.163805	-0.415097	-0.264342	1.59754	1.5708	0	0	0.655491	0.26545	0.43568	0.750148	1.5708	0	0
135.11	-3.00885	1.35841	-1.53311	0.841155	-0.564105	1.08952	-0.104276	-0.0968078	-0.0704726	0.27888	-0.375557	0	0	-0.213405	0.0229472	-0.105121	0.166813	-0.310083	0	0	-0.36231	0.139661	0.289785	0.169063	-0.41344	-0.259399	1.59589	1.5708	0	0	0.655651	0.263137	0.430834	0.752026	1.5708	0	0
135.12	-3.00769	1.35741	-1.53467	0.842626	-0.563568	1.08972	-0.109428	-0.0950497	-0.0710921	0.271108	-0.376035	0	0	-0.214272	0.0217838	-0.104814	0.168077	-0.309484	0	0	-0.364596	0.139718	0.2891	0.173946	-0.41165	-0.254903	1.5944	1.5708	0	0	0.65626	0.260783	0.426868	0.753607	1.5708	0	0
135.13	-3.00499	1.35769	-1.53749	0.844231	-0.562946	1.08984	-0.113053	-0.0934437	-0.0717688	0.263725	-0.375857	0	0	-0.213677	0.020771	-0.103931	0.169561	-0.309156	0	0	-0.364285	0.137886	0.287154	0.178959	-0.408087	-0.249811	1.58999	1.5708	0	0	0.65687	0.257512	0.42394	0.753896	1.5708	0	0
135.14	-3.00247	1.35622	-1.54031	0.845918	-0.562439	1.09007	-0.118062	-0.0917578	-0.072606	0.257249	-0.374612	0	0	-0.215111	0.019652	-0.103332	0.170578	-0.309558	0	0	-0.36673	0.135705	0.287045	0.182867	-0.404997	-0.247251	1.58775	1.5708	0	0	0.658868	0.255102	0.422559	0.753959	1.5708	0	0
135.15	-3.06218	1.28525	-1.57175	0.853145	-0.57481	1.09477	-0.145449	-0.0874943	0.0632219	0.303844	-0.360317	0	0	-0.29319	0.0285346	-0.203377	0.158634	-0.31625	0	0	-0.487871	0.136534	0.370746	0.250823	-0.459689	-0.216547	1.60096	1.5708	0	0	0.702696	0.279975	0.38811	0.75485	1.5708	0	0
135.16	-2.99335	1.36037	-1.55001	0.849366	-0.560971	1.08975	-0.119217	-0.0898797	-0.0735247	0.247298	-0.370556	0	0	-0.208905	0.01811	-0.103832	0.177318	-0.300716	0	0	-0.361063	0.130829	0.282572	0.191757	-0.397257	-0.235643	1.5778	1.5708	0	0	0.658449	0.245561	0.420098	0.756572	1.5708	0	0
135.17	-2.99049	1.36049	-1.55304	0.851067	-0.560394	1.08987	-0.120669	-0.088724	-0.0738137	0.244918	-0.368177	0	0	-0.208261	0.0170372	-0.103988	0.179503	-0.298753	0	0	-0.361386	0.128793	0.281778	0.19512	-0.393891	-0.23203	1.57501	1.5708	0	0	0.659311	0.241465	0.420495	0.757757	1.5708	0	0
135.18	-2.98438	1.36088	-1.55904	0.852771	-0.559786	1.08987	-0.122922	-0.0885797	-0.0741142	0.240632	-0.365384	0	0	-0.207299	0.0165666	-0.104097	0.181779	-0.296832	0	0	-0.361173	0.12605	0.280824	0.198025	-0.390202	-0.22864	1.57239	1.5708	0	0	0.660171	0.237195	0.421344	0.758813	1.5708	0	0
135.19	-2.98011	1.36088	-1.56309	0.854396	-0.559243	1.09	-0.124434	-0.0883891	-0.0748806	0.239142	-0.362103	0	0	-0.206706	0.015731	-0.10437	0.184085	-0.295186	0	0	-0.361629	0.124086	0.280113	0.200784	-0.386819	-0.225479	1.57018	1.5708	0	0	0.661214	0.233464	0.421708	0.759386	1.5708	0	0
135.2	-2.97584	1.36072	-1.56703	0.85596	-0.55873	1.09019	-0.125794	-0.0884136	-0.0752546	0.23884	-0.357813	0	0	-0.206113	0.0149792	-0.104727	0.186708	-0.293507	0	0	-0.362154	0.122426	0.279525	0.203216	-0.383629	-0.222572	1.56837	1.5708	0	0	0.662399	0.230201	0.421569	0.759239	1.5708	0	0
135.21	-2.97076	1.36065	-1.57158	0.857461	-0.558231	1.09041	-0.127077	-0.0885983	-0.0747334	0.238973	-0.350894	0	0	-0.205109	0.0144444	-0.105108	0.189945	-0.291435	0	0	-0.362644	0.121025	0.278302	0.205927	-0.3802	-0.21927	1.56681	1.5708	0	0	0.663195	0.226748	0.420266	0.759626	1.5708	0	0
135.22	-2.96712	1.36061	-1.5746	0.858931	-0.557749	1.09071	-0.127827	-0.0883708	-0.0733462	0.239935	-0.343561	0	0	-0.204009	0.0135804	-0.105416	0.193081	-0.289682	0	0	-0.36317	0.11986	0.277185	0.208412	-0.376631	-0.216116	1.56526	1.5708	0	0	0.664181	0.223688	0.418647	0.759325	1.5708	0	0
135.23	-2.96105	1.361	-1.5798	0.860415	-0.557229	1.09092	-0.129029	-0.0884659	-0.0711188	0.238573	-0.336427	0	0	-0.202142	0.013071	-0.105662	0.196716	-0.288012	0	0	-0.362818	0.117811	0.276185	0.210135	-0.372676	-0.213604	1.56362	1.5708	0	0	0.665435	0.22061	0.41799	0.758267	1.5708	0	0
135.24	-2.95533	1.36136	-1.5844	0.861837	-0.556667	1.09117	-0.13053	-0.0883774	-0.0690154	0.23683	-0.329526	0	0	-0.200101	0.0123479	-0.106041	0.200662	-0.286564	0	0	-0.362309	0.115889	0.27509	0.211558	-0.368843	-0.211184	1.56206	1.5708	0	0	0.666744	0.217359	0.418115	0.756892	1.5708	0	0
135.25	-2.95215	1.36186	-1.58648	0.863231	-0.556068	1.09144	-0.131662	-0.0876712	-0.066902	0.235651	-0.323157	0	0	-0.197771	0.010921	-0.106793	0.204926	-0.285203	0	0	-0.361688	0.114672	0.273982	0.212879	-0.364953	-0.208742	1.56067	1.5708	0	0	0.668038	0.213742	0.418885	0.755708	1.5708	0	0
135.26	-2.95028	1.36229	-1.58735	0.864606	-0.555505	1.09171	-0.132445	-0.08666	-0.0643613	0.235313	-0.317356	0	0	-0.195422	0.00924559	-0.107433	0.209171	-0.283982	0	0	-0.361112	0.113491	0.273246	0.214112	-0.361324	-0.206371	1.55911	1.5708	0	0	0.669758	0.210319	0.420315	0.75386	1.5708	0	0
135.27	-2.94933	1.36222	-1.58756	0.866006	-0.555002	1.09203	-0.133416	-0.0853001	-0.0612292	0.235403	-0.312284	0	0	-0.193493	0.00744458	-0.108126	0.213594	-0.282767	0	0	-0.361469	0.112559	0.272996	0.215502	-0.358038	-0.203991	1.55801	1.5708	0	0	0.671688	0.207205	0.421446	0.752139	1.5708	0	0
135.28	-2.9495	1.36172	-1.58702	0.867443	-0.554566	1.09236	-0.134807	-0.0836099	-0.0575004	0.235261	-0.308188	0	0	-0.192059	0.00551155	-0.108717	0.218041	-0.281475	0	0	-0.362634	0.112123	0.273304	0.217025	-0.355116	-0.201605	1.55752	1.5708	0	0	0.673775	0.204343	0.422187	0.750489	1.5708	0	0
135.29	-2.94965	1.3611	-1.5862	0.868772	-0.554126	1.09266	-0.136723	-0.0819618	-0.0548617	0.234332	-0.305057	0	0	-0.190793	0.00368535	-0.108892	0.222347	-0.280132	0	0	-0.363914	0.112036	0.273331	0.218411	-0.352392	-0.199231	1.55741	1.5708	0	0	0.675654	0.201852	0.42212	0.748973	1.5708	0	0
135.3	-2.94959	1.36035	-1.58534	0.87005	-0.553712	1.09293	-0.138953	-0.0803268	-0.0528365	0.233044	-0.302773	0	0	-0.189705	0.00201774	-0.108621	0.226395	-0.278785	0	0	-0.365158	0.111941	0.273218	0.219619	-0.349784	-0.196841	1.5573	1.5708	0	0	0.677452	0.199656	0.421493	0.747258	1.5708	0	0
